<mxfile host="app.diagrams.net" agent="Mozilla/5.0 (Windows NT 10.0; Win64; x64; rv:134.0) Gecko/20100101 Firefox/134.0" version="26.0.11">
  <diagram name="Pagina-1" id="iFRCBZfkcTLyciFwf0aI">
    <mxGraphModel dx="2020" dy="743" grid="1" gridSize="10" guides="1" tooltips="1" connect="1" arrows="1" fold="1" page="1" pageScale="1" pageWidth="827" pageHeight="1169" math="0" shadow="0">
      <root>
        <mxCell id="0" />
        <mxCell id="1" parent="0" />
        <mxCell id="Z37jQZA_M-lKvdJ-PT8z-1" value="UTENTE" style="rounded=0;whiteSpace=wrap;html=1;" vertex="1" parent="1">
          <mxGeometry x="120" y="160" width="120" height="60" as="geometry" />
        </mxCell>
        <mxCell id="Z37jQZA_M-lKvdJ-PT8z-2" value="" style="shape=flexArrow;endArrow=classic;html=1;rounded=0;fillColor=#000000;" edge="1" parent="1">
          <mxGeometry width="50" height="50" relative="1" as="geometry">
            <mxPoint x="180" y="260" as="sourcePoint" />
            <mxPoint x="180" y="220" as="targetPoint" />
          </mxGeometry>
        </mxCell>
        <mxCell id="Z37jQZA_M-lKvdJ-PT8z-3" value="" style="endArrow=none;html=1;rounded=0;" edge="1" parent="1">
          <mxGeometry width="50" height="50" relative="1" as="geometry">
            <mxPoint x="100" y="310" as="sourcePoint" />
            <mxPoint x="180" y="260" as="targetPoint" />
            <Array as="points">
              <mxPoint x="100" y="260" />
            </Array>
          </mxGeometry>
        </mxCell>
        <mxCell id="Z37jQZA_M-lKvdJ-PT8z-4" value="" style="endArrow=none;html=1;rounded=0;" edge="1" parent="1">
          <mxGeometry width="50" height="50" relative="1" as="geometry">
            <mxPoint x="260" y="310" as="sourcePoint" />
            <mxPoint x="180" y="260" as="targetPoint" />
            <Array as="points">
              <mxPoint x="260" y="260" />
              <mxPoint x="230" y="260" />
            </Array>
          </mxGeometry>
        </mxCell>
        <mxCell id="Z37jQZA_M-lKvdJ-PT8z-5" value="ADULTO" style="rounded=0;whiteSpace=wrap;html=1;" vertex="1" parent="1">
          <mxGeometry x="40" y="310" width="120" height="60" as="geometry" />
        </mxCell>
        <mxCell id="Z37jQZA_M-lKvdJ-PT8z-6" value="BAMBINO" style="rounded=0;whiteSpace=wrap;html=1;" vertex="1" parent="1">
          <mxGeometry x="200" y="310" width="120" height="60" as="geometry" />
        </mxCell>
        <mxCell id="Z37jQZA_M-lKvdJ-PT8z-7" value="" style="endArrow=oval;html=1;rounded=0;endFill=1;" edge="1" parent="1">
          <mxGeometry width="50" height="50" relative="1" as="geometry">
            <mxPoint x="130" y="160" as="sourcePoint" />
            <mxPoint x="130" y="130" as="targetPoint" />
          </mxGeometry>
        </mxCell>
        <mxCell id="Z37jQZA_M-lKvdJ-PT8z-8" value="CF" style="text;html=1;align=center;verticalAlign=middle;resizable=0;points=[];autosize=1;strokeColor=none;fillColor=none;" vertex="1" parent="1">
          <mxGeometry x="105" y="100" width="40" height="30" as="geometry" />
        </mxCell>
        <mxCell id="Z37jQZA_M-lKvdJ-PT8z-9" value="Nome" style="text;html=1;align=center;verticalAlign=middle;resizable=0;points=[];autosize=1;strokeColor=none;fillColor=none;" vertex="1" parent="1">
          <mxGeometry x="210" y="100" width="60" height="30" as="geometry" />
        </mxCell>
        <mxCell id="Z37jQZA_M-lKvdJ-PT8z-10" value="" style="endArrow=oval;html=1;rounded=0;endFill=0;" edge="1" parent="1">
          <mxGeometry width="50" height="50" relative="1" as="geometry">
            <mxPoint x="230" y="160" as="sourcePoint" />
            <mxPoint x="230" y="130" as="targetPoint" />
          </mxGeometry>
        </mxCell>
        <mxCell id="Z37jQZA_M-lKvdJ-PT8z-11" value="Cognome" style="text;html=1;align=center;verticalAlign=middle;resizable=0;points=[];autosize=1;strokeColor=none;fillColor=none;" vertex="1" parent="1">
          <mxGeometry x="270" y="198" width="80" height="30" as="geometry" />
        </mxCell>
        <mxCell id="Z37jQZA_M-lKvdJ-PT8z-12" value="" style="endArrow=oval;html=1;rounded=0;endFill=0;" edge="1" parent="1">
          <mxGeometry width="50" height="50" relative="1" as="geometry">
            <mxPoint x="120" y="170" as="sourcePoint" />
            <mxPoint x="90" y="170" as="targetPoint" />
          </mxGeometry>
        </mxCell>
        <mxCell id="Z37jQZA_M-lKvdJ-PT8z-13" value="Tel. (0,N)" style="text;html=1;align=center;verticalAlign=middle;resizable=0;points=[];autosize=1;strokeColor=none;fillColor=none;" vertex="1" parent="1">
          <mxGeometry x="25" y="148" width="70" height="30" as="geometry" />
        </mxCell>
        <mxCell id="Z37jQZA_M-lKvdJ-PT8z-14" value="" style="endArrow=oval;html=1;rounded=0;endFill=0;" edge="1" parent="1">
          <mxGeometry width="50" height="50" relative="1" as="geometry">
            <mxPoint x="120" y="210" as="sourcePoint" />
            <mxPoint x="90" y="210" as="targetPoint" />
          </mxGeometry>
        </mxCell>
        <mxCell id="Z37jQZA_M-lKvdJ-PT8z-15" value="Indirizzo" style="ellipse;whiteSpace=wrap;html=1;" vertex="1" parent="1">
          <mxGeometry x="45" y="198" width="50" height="32" as="geometry" />
        </mxCell>
        <mxCell id="Z37jQZA_M-lKvdJ-PT8z-16" value="" style="endArrow=oval;html=1;rounded=0;endFill=0;" edge="1" parent="1">
          <mxGeometry width="50" height="50" relative="1" as="geometry">
            <mxPoint x="70" y="198" as="sourcePoint" />
            <mxPoint x="40" y="198" as="targetPoint" />
          </mxGeometry>
        </mxCell>
        <mxCell id="Z37jQZA_M-lKvdJ-PT8z-17" value="Via" style="text;html=1;align=center;verticalAlign=middle;resizable=0;points=[];autosize=1;strokeColor=none;fillColor=none;" vertex="1" parent="1">
          <mxGeometry y="178" width="40" height="30" as="geometry" />
        </mxCell>
        <mxCell id="Z37jQZA_M-lKvdJ-PT8z-18" value="" style="endArrow=oval;html=1;rounded=0;endFill=0;" edge="1" parent="1">
          <mxGeometry width="50" height="50" relative="1" as="geometry">
            <mxPoint x="45" y="213.83" as="sourcePoint" />
            <mxPoint x="15" y="213.83" as="targetPoint" />
          </mxGeometry>
        </mxCell>
        <mxCell id="Z37jQZA_M-lKvdJ-PT8z-19" value="CAP" style="text;html=1;align=center;verticalAlign=middle;resizable=0;points=[];autosize=1;strokeColor=none;fillColor=none;" vertex="1" parent="1">
          <mxGeometry x="-30" y="198" width="50" height="30" as="geometry" />
        </mxCell>
        <mxCell id="Z37jQZA_M-lKvdJ-PT8z-20" value="" style="endArrow=oval;html=1;rounded=0;endFill=0;" edge="1" parent="1">
          <mxGeometry width="50" height="50" relative="1" as="geometry">
            <mxPoint x="70" y="230" as="sourcePoint" />
            <mxPoint x="40" y="230" as="targetPoint" />
          </mxGeometry>
        </mxCell>
        <mxCell id="Z37jQZA_M-lKvdJ-PT8z-21" value="Citta&#39;" style="text;html=1;align=center;verticalAlign=middle;resizable=0;points=[];autosize=1;strokeColor=none;fillColor=none;" vertex="1" parent="1">
          <mxGeometry x="-5" y="220" width="50" height="30" as="geometry" />
        </mxCell>
        <mxCell id="Z37jQZA_M-lKvdJ-PT8z-22" value="" style="endArrow=oval;html=1;rounded=0;endFill=0;" edge="1" parent="1">
          <mxGeometry width="50" height="50" relative="1" as="geometry">
            <mxPoint x="240" y="170" as="sourcePoint" />
            <mxPoint x="270" y="170" as="targetPoint" />
          </mxGeometry>
        </mxCell>
        <mxCell id="Z37jQZA_M-lKvdJ-PT8z-23" value="Data Nascita" style="text;html=1;align=center;verticalAlign=middle;resizable=0;points=[];autosize=1;strokeColor=none;fillColor=none;" vertex="1" parent="1">
          <mxGeometry x="270" y="148" width="90" height="30" as="geometry" />
        </mxCell>
        <mxCell id="Z37jQZA_M-lKvdJ-PT8z-24" value="" style="endArrow=oval;html=1;rounded=0;endFill=0;" edge="1" parent="1">
          <mxGeometry width="50" height="50" relative="1" as="geometry">
            <mxPoint x="240" y="209" as="sourcePoint" />
            <mxPoint x="270" y="209" as="targetPoint" />
          </mxGeometry>
        </mxCell>
        <mxCell id="Z37jQZA_M-lKvdJ-PT8z-25" value="" style="endArrow=oval;html=1;rounded=0;endFill=0;" edge="1" parent="1">
          <mxGeometry width="50" height="50" relative="1" as="geometry">
            <mxPoint x="100" y="370" as="sourcePoint" />
            <mxPoint x="100" y="400" as="targetPoint" />
          </mxGeometry>
        </mxCell>
        <mxCell id="Z37jQZA_M-lKvdJ-PT8z-26" value="" style="endArrow=oval;html=1;rounded=0;endFill=0;" edge="1" parent="1">
          <mxGeometry width="50" height="50" relative="1" as="geometry">
            <mxPoint x="259.74" y="368" as="sourcePoint" />
            <mxPoint x="259.74" y="398" as="targetPoint" />
          </mxGeometry>
        </mxCell>
        <mxCell id="Z37jQZA_M-lKvdJ-PT8z-27" value="Professione" style="text;html=1;align=center;verticalAlign=middle;resizable=0;points=[];autosize=1;strokeColor=none;fillColor=none;" vertex="1" parent="1">
          <mxGeometry x="55" y="398" width="90" height="30" as="geometry" />
        </mxCell>
        <mxCell id="Z37jQZA_M-lKvdJ-PT8z-28" value="TutoreLegale" style="text;html=1;align=center;verticalAlign=middle;resizable=0;points=[];autosize=1;strokeColor=none;fillColor=none;" vertex="1" parent="1">
          <mxGeometry x="215" y="398" width="90" height="30" as="geometry" />
        </mxCell>
        <mxCell id="Z37jQZA_M-lKvdJ-PT8z-29" value="" style="shape=flexArrow;endArrow=classic;html=1;rounded=0;" edge="1" parent="1">
          <mxGeometry width="50" height="50" relative="1" as="geometry">
            <mxPoint x="354" y="192.5" as="sourcePoint" />
            <mxPoint x="474" y="192.5" as="targetPoint" />
          </mxGeometry>
        </mxCell>
        <mxCell id="Z37jQZA_M-lKvdJ-PT8z-31" value="UTENTE" style="rounded=0;whiteSpace=wrap;html=1;" vertex="1" parent="1">
          <mxGeometry x="540" y="278" width="120" height="60" as="geometry" />
        </mxCell>
        <mxCell id="Z37jQZA_M-lKvdJ-PT8z-32" value="" style="endArrow=oval;html=1;rounded=0;endFill=1;" edge="1" parent="1">
          <mxGeometry width="50" height="50" relative="1" as="geometry">
            <mxPoint x="550" y="278" as="sourcePoint" />
            <mxPoint x="550" y="248" as="targetPoint" />
          </mxGeometry>
        </mxCell>
        <mxCell id="Z37jQZA_M-lKvdJ-PT8z-33" value="CF" style="text;html=1;align=center;verticalAlign=middle;resizable=0;points=[];autosize=1;strokeColor=none;fillColor=none;" vertex="1" parent="1">
          <mxGeometry x="515" y="228" width="40" height="30" as="geometry" />
        </mxCell>
        <mxCell id="Z37jQZA_M-lKvdJ-PT8z-34" value="Nome" style="text;html=1;align=center;verticalAlign=middle;resizable=0;points=[];autosize=1;strokeColor=none;fillColor=none;" vertex="1" parent="1">
          <mxGeometry x="650" y="228" width="60" height="30" as="geometry" />
        </mxCell>
        <mxCell id="Z37jQZA_M-lKvdJ-PT8z-35" value="" style="endArrow=oval;html=1;rounded=0;endFill=0;" edge="1" parent="1">
          <mxGeometry width="50" height="50" relative="1" as="geometry">
            <mxPoint x="650" y="278" as="sourcePoint" />
            <mxPoint x="650" y="248" as="targetPoint" />
          </mxGeometry>
        </mxCell>
        <mxCell id="Z37jQZA_M-lKvdJ-PT8z-36" value="Cognome" style="text;html=1;align=center;verticalAlign=middle;resizable=0;points=[];autosize=1;strokeColor=none;fillColor=none;" vertex="1" parent="1">
          <mxGeometry x="665" y="256" width="80" height="30" as="geometry" />
        </mxCell>
        <mxCell id="Z37jQZA_M-lKvdJ-PT8z-37" value="" style="endArrow=oval;html=1;rounded=0;endFill=0;" edge="1" parent="1">
          <mxGeometry width="50" height="50" relative="1" as="geometry">
            <mxPoint x="540" y="288" as="sourcePoint" />
            <mxPoint x="510" y="288" as="targetPoint" />
          </mxGeometry>
        </mxCell>
        <mxCell id="Z37jQZA_M-lKvdJ-PT8z-38" value="" style="endArrow=oval;html=1;rounded=0;endFill=0;" edge="1" parent="1">
          <mxGeometry width="50" height="50" relative="1" as="geometry">
            <mxPoint x="540" y="307.16999999999996" as="sourcePoint" />
            <mxPoint x="510" y="307.16999999999996" as="targetPoint" />
          </mxGeometry>
        </mxCell>
        <mxCell id="Z37jQZA_M-lKvdJ-PT8z-39" value="Via" style="text;html=1;align=center;verticalAlign=middle;resizable=0;points=[];autosize=1;strokeColor=none;fillColor=none;" vertex="1" parent="1">
          <mxGeometry x="475" y="266" width="40" height="30" as="geometry" />
        </mxCell>
        <mxCell id="Z37jQZA_M-lKvdJ-PT8z-40" value="CAP" style="text;html=1;align=center;verticalAlign=middle;resizable=0;points=[];autosize=1;strokeColor=none;fillColor=none;" vertex="1" parent="1">
          <mxGeometry x="465" y="293" width="50" height="30" as="geometry" />
        </mxCell>
        <mxCell id="Z37jQZA_M-lKvdJ-PT8z-41" value="" style="endArrow=oval;html=1;rounded=0;endFill=0;" edge="1" parent="1">
          <mxGeometry width="50" height="50" relative="1" as="geometry">
            <mxPoint x="540" y="330.72" as="sourcePoint" />
            <mxPoint x="510" y="330.72" as="targetPoint" />
          </mxGeometry>
        </mxCell>
        <mxCell id="Z37jQZA_M-lKvdJ-PT8z-42" value="Citta&#39;" style="text;html=1;align=center;verticalAlign=middle;resizable=0;points=[];autosize=1;strokeColor=none;fillColor=none;" vertex="1" parent="1">
          <mxGeometry x="460" y="316" width="50" height="30" as="geometry" />
        </mxCell>
        <mxCell id="Z37jQZA_M-lKvdJ-PT8z-43" value="" style="endArrow=oval;html=1;rounded=0;endFill=0;" edge="1" parent="1">
          <mxGeometry width="50" height="50" relative="1" as="geometry">
            <mxPoint x="660" y="288" as="sourcePoint" />
            <mxPoint x="690" y="288" as="targetPoint" />
          </mxGeometry>
        </mxCell>
        <mxCell id="Z37jQZA_M-lKvdJ-PT8z-44" value="" style="endArrow=oval;html=1;rounded=0;endFill=0;" edge="1" parent="1">
          <mxGeometry width="50" height="50" relative="1" as="geometry">
            <mxPoint x="660" y="327" as="sourcePoint" />
            <mxPoint x="690" y="327" as="targetPoint" />
          </mxGeometry>
        </mxCell>
        <mxCell id="Z37jQZA_M-lKvdJ-PT8z-47" value="" style="endArrow=oval;html=1;rounded=0;endFill=0;" edge="1" parent="1">
          <mxGeometry width="50" height="50" relative="1" as="geometry">
            <mxPoint x="650" y="338" as="sourcePoint" />
            <mxPoint x="650" y="368" as="targetPoint" />
          </mxGeometry>
        </mxCell>
        <mxCell id="Z37jQZA_M-lKvdJ-PT8z-48" value="TELEFONO" style="rounded=0;whiteSpace=wrap;html=1;" vertex="1" parent="1">
          <mxGeometry x="540" y="98" width="120" height="60" as="geometry" />
        </mxCell>
        <mxCell id="Z37jQZA_M-lKvdJ-PT8z-49" value="" style="endArrow=oval;html=1;rounded=0;endFill=0;" edge="1" parent="1">
          <mxGeometry width="50" height="50" relative="1" as="geometry">
            <mxPoint x="660" y="127.68" as="sourcePoint" />
            <mxPoint x="690" y="127.68" as="targetPoint" />
          </mxGeometry>
        </mxCell>
        <mxCell id="Z37jQZA_M-lKvdJ-PT8z-50" value="Numero" style="text;html=1;align=center;verticalAlign=middle;resizable=0;points=[];autosize=1;strokeColor=none;fillColor=none;" vertex="1" parent="1">
          <mxGeometry x="685" y="113" width="70" height="30" as="geometry" />
        </mxCell>
        <mxCell id="Z37jQZA_M-lKvdJ-PT8z-51" value="U-T" style="rhombus;whiteSpace=wrap;html=1;" vertex="1" parent="1">
          <mxGeometry x="540" y="186" width="120" height="60" as="geometry" />
        </mxCell>
        <mxCell id="Z37jQZA_M-lKvdJ-PT8z-52" value="" style="endArrow=none;html=1;rounded=0;exitX=0.5;exitY=0;exitDx=0;exitDy=0;" edge="1" parent="1" source="Z37jQZA_M-lKvdJ-PT8z-51">
          <mxGeometry width="50" height="50" relative="1" as="geometry">
            <mxPoint x="550" y="208" as="sourcePoint" />
            <mxPoint x="600" y="158" as="targetPoint" />
          </mxGeometry>
        </mxCell>
        <mxCell id="Z37jQZA_M-lKvdJ-PT8z-53" value="" style="endArrow=none;html=1;rounded=0;" edge="1" parent="1" source="Z37jQZA_M-lKvdJ-PT8z-31">
          <mxGeometry width="50" height="50" relative="1" as="geometry">
            <mxPoint x="599.81" y="274" as="sourcePoint" />
            <mxPoint x="599.81" y="246" as="targetPoint" />
          </mxGeometry>
        </mxCell>
        <mxCell id="Z37jQZA_M-lKvdJ-PT8z-54" value="(0,N)" style="text;html=1;align=center;verticalAlign=middle;resizable=0;points=[];autosize=1;strokeColor=none;fillColor=none;" vertex="1" parent="1">
          <mxGeometry x="590" y="236" width="50" height="30" as="geometry" />
        </mxCell>
        <mxCell id="Z37jQZA_M-lKvdJ-PT8z-55" value="" style="endArrow=oval;html=1;rounded=0;endFill=1;" edge="1" parent="1">
          <mxGeometry width="50" height="50" relative="1" as="geometry">
            <mxPoint x="570" y="168" as="sourcePoint" />
            <mxPoint x="630" y="168" as="targetPoint" />
          </mxGeometry>
        </mxCell>
        <mxCell id="Z37jQZA_M-lKvdJ-PT8z-56" value="(1,1)" style="text;html=1;align=center;verticalAlign=middle;resizable=0;points=[];autosize=1;strokeColor=none;fillColor=none;" vertex="1" parent="1">
          <mxGeometry x="590" y="166" width="50" height="30" as="geometry" />
        </mxCell>
        <mxCell id="Z37jQZA_M-lKvdJ-PT8z-57" value="" style="endArrow=oval;html=1;rounded=0;endFill=0;" edge="1" parent="1">
          <mxGeometry width="50" height="50" relative="1" as="geometry">
            <mxPoint x="549.8" y="338" as="sourcePoint" />
            <mxPoint x="549.8" y="368" as="targetPoint" />
          </mxGeometry>
        </mxCell>
        <mxCell id="Z37jQZA_M-lKvdJ-PT8z-58" value="TipoUtente" style="text;html=1;align=center;verticalAlign=middle;resizable=0;points=[];autosize=1;strokeColor=none;fillColor=none;" vertex="1" parent="1">
          <mxGeometry x="480" y="358" width="80" height="30" as="geometry" />
        </mxCell>
        <mxCell id="Z37jQZA_M-lKvdJ-PT8z-59" value="Professione (0,1)" style="text;html=1;align=center;verticalAlign=middle;resizable=0;points=[];autosize=1;strokeColor=none;fillColor=none;" vertex="1" parent="1">
          <mxGeometry x="650" y="358" width="110" height="30" as="geometry" />
        </mxCell>
        <mxCell id="Z37jQZA_M-lKvdJ-PT8z-60" value="" style="endArrow=oval;html=1;rounded=0;endFill=0;" edge="1" parent="1">
          <mxGeometry width="50" height="50" relative="1" as="geometry">
            <mxPoint x="602.5" y="338" as="sourcePoint" />
            <mxPoint x="602.5" y="368" as="targetPoint" />
          </mxGeometry>
        </mxCell>
        <mxCell id="Z37jQZA_M-lKvdJ-PT8z-61" value="TutoreLegale (0,1)" style="text;html=1;align=center;verticalAlign=middle;resizable=0;points=[];autosize=1;strokeColor=none;fillColor=none;" vertex="1" parent="1">
          <mxGeometry x="545" y="368" width="120" height="30" as="geometry" />
        </mxCell>
      </root>
    </mxGraphModel>
  </diagram>
</mxfile>
